<?xml version="1.0" encoding="UTF-8"?>
<!DOCTYPE svg PUBLIC "-//W3C//DTD SVG 1.1//EN" "http://www.w3.org/Graphics/SVG/1.1/DTD/svg11.dtd">
<!-- Creator: CorelDRAW 2020 (64 Bit) -->
<svg xmlns="http://www.w3.org/2000/svg" xml:space="preserve" width="42.3332mm" height="42.3332mm" version="1.1" style="shape-rendering:geometricPrecision; text-rendering:geometricPrecision; image-rendering:optimizeQuality; fill-rule:evenodd; clip-rule:evenodd"
viewBox="0 0 4233.32 4233.32"
 xmlns:xlink="http://www.w3.org/1999/xlink"
 xmlns:xodm="http://www.corel.com/coreldraw/odm/2003">
 <defs>
  <style type="text/css">
   <![CDATA[
    .fil0 {fill:white}
    .fil1 {fill:#0069FE;fill-rule:nonzero}
   ]]>
  </style>
 </defs>
 <g id="Camada_x0020_1">
  <metadata id="CorelCorpID_0Corel-Layer"/>
  <rect class="fil0" x="-0.02" y="-0.01" width="4233.33" height="4233.33" rx="482.6" ry="482.6"/>
  <path id="sitemap-solid.svg" class="fil1" d="M1635.83 1058.85c0,-159.34 129.22,-288.5 288.5,-288.5l384.66 0c159.28,0 288.5,129.16 288.5,288.5l0 384.65c0,159.28 -129.22,288.5 -288.5,288.5l-48.08 0 0 240.41 913.56 0c185.72,0 336.59,150.86 336.59,336.58l0 192.33 48.08 0c159.28,0 288.5,129.22 288.5,288.5l0 384.65c0,159.29 -129.22,288.5 -288.5,288.5l-384.67 0c-159.27,0 -288.49,-129.21 -288.49,-288.5l0 -384.65c0,-159.28 129.22,-288.5 288.49,-288.5l48.09 0 0 -192.33c0,-26.44 -21.64,-48.08 -48.09,-48.08l-913.56 0 0 240.41 48.08 0c159.28,0 288.5,129.22 288.5,288.5l0 384.65c0,159.29 -129.22,288.5 -288.5,288.5l-384.66 0c-159.28,0 -288.5,-129.21 -288.5,-288.5l0 -384.65c0,-159.28 129.22,-288.5 288.5,-288.5l48.08 0 0 -240.41 -913.56 0c-26.45,0 -48.09,21.64 -48.09,48.08l0 192.33 48.09 0c159.27,0 288.49,129.22 288.49,288.5l0 384.65c0,159.29 -129.22,288.5 -288.49,288.5l-384.67 0c-159.33,0 -288.5,-129.21 -288.5,-288.5l0 -384.65c0,-159.28 129.17,-288.5 288.5,-288.5l48.08 0 0 -192.33c0,-185.72 150.69,-336.58 336.59,-336.58l913.56 0 0 -240.41 -48.08 0c-159.28,0 -288.5,-129.22 -288.5,-288.5l0 -384.65z"/>
 </g>
</svg>
